<?xml version="1.0" encoding="utf-8"?>
<!-- Generator: Adobe Illustrator 22.1.0, SVG Export Plug-In . SVG Version: 6.00 Build 0)  -->
<svg version="1.1" id="Laag_1" xmlns="http://www.w3.org/2000/svg" xmlns:xlink="http://www.w3.org/1999/xlink" x="0px" y="0px"
	 viewBox="0 0 85 85" style="enable-background:new 0 0 85 85;" xml:space="preserve">
<style type="text/css">
	.st0{fill:#00D66C;}
</style>
<g>
	<path class="st0" d="M42.4,80.4c-12.7,0-25.4,0-38,0c-3.5,0-3.5-0.1-2.7-3.4c0.7-2.7,1.4-5.4,2.3-8.1c1.5-4.7,4.6-7.8,9.3-9.1
		c4.1-1.2,8.3-2.3,12.3-3.6c2-0.6,3.4-0.3,4.9,1.2c3.3,3.5,6.8,6.8,10.2,10.2c1.3,1.3,2.2,1.3,3.4,0c3.5-3.6,7.1-7,10.6-10.6
		c1.3-1.3,2.5-1.6,4.2-1.1c4.4,1.4,8.9,2.5,13.3,3.9c4.3,1.3,7.2,4.2,8.6,8.5c1,2.9,1.8,5.9,2.6,8.8c0.8,2.8,0.6,3.1-2.3,3.1
		c-9.3,0-18.5,0-27.8,0C49.7,80.4,46,80.4,42.4,80.4z"/>
	<path class="st0" d="M24.2,22.3c0-3,1.4-7.8,5-11.7c4.9-5.4,11-7,17.9-5.3c7.3,1.8,11.8,7,13.2,14.2c1.8,9.8-0.3,19-6.7,26.8
		c-6,7.3-15.2,7.3-21.7,0.4C27.2,41.8,24.2,32.9,24.2,22.3z"/>
</g>
</svg>
