<?xml version="1.0" encoding="utf-8"?>
<!-- Generator: Adobe Illustrator 22.1.0, SVG Export Plug-In . SVG Version: 6.00 Build 0)  -->
<svg version="1.1" id="Laag_1" xmlns="http://www.w3.org/2000/svg" xmlns:xlink="http://www.w3.org/1999/xlink" x="0px" y="0px"
	 viewBox="0 0 85 85" style="enable-background:new 0 0 85 85;" xml:space="preserve">
<style type="text/css">
	.st0{fill:#00D66C;}
</style>
<path class="st0" d="M84,42.6C84,19.4,65.7,1,42.5,1C19.4,1,1,19.4,1,42.6c0,22.3,17,40.2,39,41.5H45C67,82.8,84,64.9,84,42.6
	L84,42.6L84,42.6z M64.2,52.2c-1.2,9.7-7.9,16.1-18,16.1c-10.8,0-17.7-7.5-17.7-18.2v-8.6h-6.9c-2.3,0-3.7-1.3-3.7-3.7v-1.1
	c0-2.3,1.3-3.7,3.7-3.7h12.2c0.7,0,1.3,0.1,1.8,0.3c-0.1-0.4-0.2-0.9-0.2-1.4V19.7c0-2.3,1.3-3.7,3.7-3.7h1.7c2.3,0,3.7,1.3,3.7,3.7
	v7.5h6.9c2.3,0,3.7,1.3,3.7,3.7V32c0,2.3-1.3,3.7-3.7,3.7H39c-0.7,0-1.3-0.1-1.8-0.3c0.1,0.4,0.2,0.9,0.2,1.4V50
	c0,5.7,3.4,9.6,8.7,9.6c4.6,0,8.1-3,8.7-7.4c0.3-2.4,1.3-3.7,3.7-3.7h2.3l0,0C62.9,48.6,64.5,49.8,64.2,52.2z"/>
</svg>
