<?xml version="1.0" encoding="utf-8"?>
<!-- Generator: Adobe Illustrator 22.1.0, SVG Export Plug-In . SVG Version: 6.00 Build 0)  -->
<svg version="1.1" id="Laag_1" xmlns="http://www.w3.org/2000/svg" xmlns:xlink="http://www.w3.org/1999/xlink" x="0px" y="0px"
	 viewBox="0 0 104 30.9" style="enable-background:new 0 0 104 30.9;" xml:space="preserve">
<style type="text/css">
	.st0{fill:none;}
	.st1{fill:#00D66C;}
	.st2{fill:#51B266;}
</style>
<g>
	<path class="st0" d="M9.8,18.2c0-0.1-0.1-0.3-0.1-0.4C9.7,17.9,9.7,18.1,9.8,18.2z"/>
	<path class="st0" d="M13.9,18.9c0.1,0,0.2-0.1,0.3-0.1C14.1,18.8,14,18.9,13.9,18.9z"/>
	<path class="st0" d="M14.7,18.4c-0.1,0.1-0.2,0.2-0.4,0.3C14.5,18.6,14.6,18.5,14.7,18.4z"/>
	<path class="st0" d="M14.8,18.3c0.1-0.1,0.1-0.2,0.1-0.2C14.9,18.1,14.9,18.2,14.8,18.3z"/>
	<path class="st0" d="M10,18.9c-0.1-0.1-0.1-0.2-0.2-0.4C9.9,18.7,10,18.8,10,18.9z"/>
	<path class="st0" d="M13.3,20.8c-0.3,0-0.5,0-0.8-0.1C12.8,20.8,13,20.8,13.3,20.8z"/>
	<path class="st0" d="M12,20.6c-0.1,0-0.2,0-0.2-0.1C11.9,20.6,11.9,20.6,12,20.6z"/>
	<path class="st0" d="M10.8,19.9c-0.1-0.1-0.1-0.1-0.2-0.2C10.7,19.8,10.7,19.9,10.8,19.9z"/>
	<path class="st0" d="M10.4,19.5c-0.1-0.1-0.1-0.2-0.2-0.3C10.2,19.3,10.3,19.4,10.4,19.5z"/>
	<path class="st0" d="M11.3,20.3c-0.1,0-0.1-0.1-0.2-0.1C11.2,20.2,11.3,20.3,11.3,20.3z"/>
	<path class="st1" d="M12.6,6.9C7.8,6.9,4,10.7,4,15.5c0,4.6,3.5,8.3,8.1,8.6h1c4.5-0.3,8.1-4,8.1-8.6C21.1,10.7,17.4,6.9,12.6,6.9z
		 M17,17.5c-0.2,2-1.6,3.3-3.7,3.3c-0.3,0-0.5,0-0.8-0.1c-0.2,0-0.3-0.1-0.5-0.1c-0.1,0-0.2,0-0.2-0.1c-0.2-0.1-0.3-0.2-0.5-0.2
		c-0.1,0-0.1-0.1-0.2-0.1c-0.1-0.1-0.2-0.2-0.3-0.3c-0.1-0.1-0.1-0.1-0.2-0.2c-0.1-0.1-0.2-0.2-0.2-0.3c-0.1-0.1-0.1-0.2-0.2-0.3
		c-0.1-0.1-0.1-0.2-0.1-0.3c-0.1-0.1-0.1-0.2-0.2-0.4c0-0.1-0.1-0.2-0.1-0.3c0-0.1-0.1-0.3-0.1-0.4c0-0.3-0.1-0.5-0.1-0.8v-1.8H8.2
		c-0.5,0-0.8-0.3-0.8-0.8v-0.1v-0.1v-0.1c0-0.5,0.3-0.8,0.8-0.8h2.5c0.2,0,0.3,0.1,0.4,0.1c0-0.1,0-0.1,0-0.2c0,0,0-0.1,0-0.1v-2.4
		v-0.1c0-0.5,0.3-0.8,0.8-0.8h0.3c0.5,0,0.8,0.3,0.8,0.8v0.1v1.5h1.4c0.5,0,0.8,0.3,0.8,0.8v0.1v0.1v0.1c0,0.5-0.3,0.8-0.8,0.8h-2.5
		c-0.1,0-0.3,0-0.4-0.1c0,0.1,0,0.1,0,0.2v0.1V17c0,1.2,0.7,2,1.8,2c0.2,0,0.4,0,0.6-0.1c0.1,0,0.2-0.1,0.3-0.1
		c0.1,0,0.1-0.1,0.2-0.1c0.1-0.1,0.2-0.2,0.4-0.3c0-0.1,0.1-0.1,0.1-0.2c0.1-0.1,0.1-0.2,0.1-0.2c0.1-0.2,0.1-0.3,0.2-0.5
		c0.1-0.5,0.3-0.8,0.8-0.8h0.5C16.8,16.7,17.1,17,17,17.5z"/>
	<path class="st2" d="M14.2,18.8c0.1,0,0.1-0.1,0.2-0.1C14.3,18.7,14.2,18.8,14.2,18.8z"/>
	<path class="st2" d="M9.7,17.8c0-0.3-0.1-0.5-0.1-0.8C9.6,17.3,9.6,17.5,9.7,17.8z"/>
	<path class="st2" d="M13.3,19c0.2,0,0.4,0,0.6-0.1C13.7,19,13.5,19,13.3,19z"/>
	<path class="st2" d="M9.9,18.5c0-0.1-0.1-0.2-0.1-0.3C9.8,18.3,9.8,18.4,9.9,18.5z"/>
	<path class="st2" d="M10.6,19.7c-0.1-0.1-0.2-0.2-0.2-0.3C10.5,19.6,10.5,19.7,10.6,19.7z"/>
	<path class="st2" d="M12.5,20.7c-0.2,0-0.3-0.1-0.5-0.1C12.2,20.6,12.3,20.7,12.5,20.7z"/>
	<path class="st2" d="M11.2,20.2c-0.1-0.1-0.2-0.2-0.3-0.3C10.9,20,11,20.1,11.2,20.2z"/>
	<path class="st2" d="M10.2,19.2c-0.1-0.1-0.1-0.2-0.1-0.3C10.1,19,10.1,19.1,10.2,19.2z"/>
	<path class="st2" d="M11.8,20.5c-0.2-0.1-0.3-0.2-0.5-0.2C11.5,20.4,11.6,20.5,11.8,20.5z"/>
	<path class="st2" d="M14.8,18.3c0,0.1-0.1,0.1-0.1,0.2C14.7,18.4,14.8,18.3,14.8,18.3z"/>
	<path class="st2" d="M14.9,18c0.1-0.2,0.1-0.3,0.2-0.5C15.1,17.7,15,17.9,14.9,18z"/>
	<g>
		<path class="st1" d="M37.2,11.7c-1,0-1.9,0.4-2.4,1.3l-0.1-1.1h-1.8V20h2v-4.4c0-1.6,0.9-2.1,1.9-2.1c0.6,0,1,0.2,1.4,0.5l0.9-1.6
			C38.6,12,37.9,11.7,37.2,11.7z"/>
		<path class="st1" d="M97.9,11.9L97.8,13c-0.5-0.8-1.4-1.3-2.8-1.3c-2.2,0-4.2,1.4-4.2,4.3c0,2.9,1.9,4.3,4.2,4.3
			c1.4,0,2.3-0.5,2.8-1.3l0.1,1.1h1.8v-8.2H97.9z M95.3,18.5c-1.4,0-2.4-0.9-2.4-2.5c0-1.6,1-2.5,2.4-2.5c1.4,0,2.4,0.9,2.4,2.5
			C97.7,17.5,96.7,18.5,95.3,18.5z"/>
		<path class="st1" d="M30.3,18.3c-0.7,0-1-0.4-1-1.2v-3.6h2.3v-1.7h-2.3V9.5l-2,0.2v2.1h-1.5v1.7h1.5v3.7c0,2,1.1,2.9,2.8,2.9
			c0.7,0,1.3-0.2,1.8-0.4l-0.5-1.6C30.9,18.2,30.6,18.3,30.3,18.3z"/>
		<path class="st1" d="M46,13c-0.5-0.8-1.4-1.3-2.8-1.3C41,11.7,39,13.1,39,16c0,2.9,1.9,4.3,4.2,4.3c1.4,0,2.3-0.5,2.8-1.3l0.1,1.1
			h1.8v-8.2h-1.8L46,13z M43.5,18.5c-1.4,0-2.4-0.9-2.4-2.5c0-1.6,1-2.5,2.4-2.5s2.4,0.9,2.4,2.5C45.9,17.5,44.9,18.5,43.5,18.5z"/>
		<polygon class="st1" points="82,17.9 79.6,11.9 77.3,11.9 80.8,20 83,20 86.4,11.9 84.3,11.9 		"/>
		<rect x="87.4" y="11.9" class="st1" width="2" height="8.2"/>
		<path class="st1" d="M88.4,8.8c-0.6,0-1.2,0.4-1.2,1.2c0,0.8,0.6,1.2,1.2,1.2c0.6,0,1.2-0.4,1.2-1.2C89.6,9.2,89,8.8,88.4,8.8z"/>
		<path class="st1" d="M74.4,13c-0.5-0.8-1.3-1.3-2.8-1.3c-2.2,0-4.2,1.4-4.2,4.3c0,2.9,1.9,4.3,4.2,4.3c1.4,0,2.3-0.5,2.8-1.3
			l0.1,1.1h1.8v-8.2h-1.8L74.4,13z M71.9,18.5c-1.4,0-2.4-0.9-2.4-2.5c0-1.6,1-2.5,2.4-2.5c1.4,0,2.4,0.9,2.4,2.5
			C74.4,17.5,73.3,18.5,71.9,18.5z"/>
		<path class="st1" d="M54.5,11.7c-1.3,0-2.2,0.5-2.7,1.3l-0.1-1.1h-1.8V20h2v-4.4c0-1.4,0.9-2.2,2.1-2.2s2,0.8,2,2.2V20h2v-4.7
			C57.9,12.9,56.4,11.7,54.5,11.7z"/>
		<path class="st1" d="M63.5,15.1c-0.8-0.1-2-0.2-2-1c0-0.6,0.7-0.8,1.6-0.8c0.8,0,1.6,0.2,2.2,0.8l1-1.3c-0.9-0.8-1.9-1-3.1-1
			c-1.7,0-3.7,0.6-3.7,2.6c0,1.8,1.6,2.3,3.1,2.5c0.8,0.1,2,0.2,2,1c0,0.6-0.6,0.8-1.5,0.8c-0.9,0-2.2-0.3-2.9-1.1l-1,1.3
			c1,1.1,2.6,1.5,3.9,1.5c2.5,0,3.6-1.1,3.6-2.6C66.6,15.8,64.8,15.3,63.5,15.1z"/>
	</g>
</g>
</svg>
