<?xml version="1.0" encoding="utf-8"?>
<!-- Generator: Adobe Illustrator 21.0.0, SVG Export Plug-In . SVG Version: 6.00 Build 0)  -->
<svg version="1.1" id="Layer_1" xmlns="http://www.w3.org/2000/svg" xmlns:xlink="http://www.w3.org/1999/xlink" x="0px" y="0px"
	 viewBox="0 0 16.2 14.7" style="enable-background:new 0 0 16.2 14.7;" xml:space="preserve">
<style type="text/css">
	.st0{fill:#FFFFFF;}
</style>
<path class="st0" d="M14.1,5.9c0-0.2,0.1-0.4,0.1-0.5c0-2.2-1.8-4.1-4.1-4.1c-1.3,0-2.5,0.6-3.2,1.6C6.6,2.8,6.4,2.8,6.1,2.8
	c-2,0-3.5,1.6-3.5,3.5c0,0.1,0,0.1,0,0.2C1.1,6.9,0,8.3,0,9.9c0,2,1.6,3.5,3.5,3.5h8.6c2.2,0,4.1-1.8,4.1-4.1
	C16.2,7.9,15.4,6.6,14.1,5.9z M11,5.2l-2.4,5.6c-0.1,0.2-0.3,0.4-0.5,0.4c0,0-0.1,0-0.1,0c-0.2,0-0.4-0.1-0.5-0.3L5.3,8.1
	C5.2,7.9,5.2,7.8,5.3,7.7l0.6-0.5C6,7.1,6.2,7.2,6.3,7.3l1.6,2l2-4.6c0.1-0.1,0.2-0.2,0.4-0.1l0.7,0.3C11,5,11,5.1,11,5.2z"/>
</svg>
