<?xml version="1.0" encoding="utf-8"?>
<!-- Generator: Adobe Illustrator 22.1.0, SVG Export Plug-In . SVG Version: 6.00 Build 0)  -->
<svg version="1.1" id="Laag_1" xmlns="http://www.w3.org/2000/svg" xmlns:xlink="http://www.w3.org/1999/xlink" x="0px" y="0px"
	 viewBox="0 0 69.8 155.9" style="enable-background:new 0 0 69.8 155.9;" xml:space="preserve">
<style type="text/css">
	.st0{fill:#E73A6A;}
	.st1{fill:#F4F4F4;}
</style>
<path class="st0" d="M34.9,155.9L34.9,155.9C15.6,155.9,0,140.2,0,120.9l0-85C0,16.6,15.6,1,34.9,1h0c19.3,0,34.9,15.6,34.9,34.9v85
	C69.8,140.2,54.2,155.9,34.9,155.9z"/>
<g>
	<g>
		<g>
			<path class="st1" d="M18.9,60.7C18.9,60.7,18.9,60.7,18.9,60.7c-0.4,0-0.9,0.2-1.2,0.5c-0.3,0.3-0.5,0.7-0.5,1.2v24.8
				c0,0.9,0.7,1.7,1.7,1.7c3.9,0,10.3,0.8,14.8,5.5v-26c0-0.3-0.1-0.6-0.2-0.8C29.8,61.6,22.8,60.7,18.9,60.7z"/>
			<path class="st1" d="M52.7,87.2V62.4c0-0.4-0.2-0.9-0.5-1.2c-0.3-0.3-0.7-0.5-1.2-0.5c0,0,0,0,0,0c-3.9,0-10.9,0.9-14.5,6.8
				c-0.1,0.2-0.2,0.5-0.2,0.8v26c4.5-4.7,10.9-5.5,14.8-5.5C51.9,88.8,52.7,88.1,52.7,87.2z"/>
			<path class="st1" d="M56.4,66.4h-1.2v20.7c0,2.3-1.9,4.2-4.2,4.2c-3.3,0-8.7,0.6-12.5,4.3c6.6-1.6,13.6-0.6,17.5,0.3
				c0.5,0.1,1,0,1.4-0.3c0.4-0.3,0.6-0.8,0.6-1.3V68.1C58.1,67.2,57.3,66.4,56.4,66.4z"/>
			<path class="st1" d="M14.7,87.2V66.4h-1.2c-0.9,0-1.7,0.7-1.7,1.7v26.3c0,0.5,0.2,1,0.6,1.3c0.4,0.3,0.9,0.4,1.4,0.3
				c4-0.9,10.9-2,17.5-0.3c-3.8-3.6-9.2-4.2-12.5-4.3C16.6,91.4,14.7,89.5,14.7,87.2z"/>
		</g>
	</g>
</g>
</svg>
