<?xml version="1.0" encoding="utf-8"?>
<!-- Generator: Adobe Illustrator 22.1.0, SVG Export Plug-In . SVG Version: 6.00 Build 0)  -->
<svg version="1.1" id="Laag_1" xmlns="http://www.w3.org/2000/svg" xmlns:xlink="http://www.w3.org/1999/xlink" x="0px" y="0px"
	 viewBox="0 0 85 85" style="enable-background:new 0 0 85 85;" xml:space="preserve">
<style type="text/css">
	.st0{fill:#00D66C;}
</style>
<g>
	<g>
		<g>
			<path class="st0" d="M14.2,11.4C14.2,11.4,14.2,11.4,14.2,11.4c-0.8,0-1.5,0.3-2.1,0.8c-0.6,0.6-0.9,1.3-0.9,2.1V58
				c0,1.6,1.3,2.9,2.9,2.9c6.8,0,18.2,1.4,26,9.6V24.8c0-0.5-0.1-1.1-0.4-1.5C33.4,13,21,11.4,14.2,11.4z"/>
			<path class="st0" d="M73.7,58V14.3c0-0.8-0.3-1.5-0.9-2.1c-0.5-0.5-1.3-0.8-2-0.8c0,0,0,0,0,0c-6.8,0-19.2,1.6-25.6,12
				c-0.3,0.4-0.4,0.9-0.4,1.5v45.8c7.9-8.2,19.2-9.6,26-9.6C72.4,61,73.7,59.7,73.7,58z"/>
			<path class="st0" d="M80.4,21.5h-2.1V58c0,4.1-3.3,7.4-7.4,7.4c-5.8,0-15.3,1.1-22,7.5c11.6-2.8,23.9-1,30.9,0.6
				c0.9,0.2,1.8,0,2.5-0.6c0.7-0.6,1.1-1.4,1.1-2.3V24.4C83.3,22.8,82,21.5,80.4,21.5z"/>
			<path class="st0" d="M6.8,58V21.5H4.7c-1.6,0-2.9,1.3-2.9,2.9v46.4c0,0.9,0.4,1.7,1.1,2.3c0.7,0.6,1.6,0.8,2.5,0.6
				c7-1.6,19.3-3.4,30.9-0.6c-6.7-6.4-16.2-7.5-22-7.5C10.1,65.5,6.8,62.1,6.8,58z"/>
		</g>
	</g>
</g>
</svg>
